<svg aria-hidden="true" style="position: absolute; width: 0; height: 0; overflow: hidden;" version="1.1" xmlns="http://www.w3.org/2000/svg" xmlns:xlink="http://www.w3.org/1999/xlink">
<defs>
<symbol id="icon-book" viewBox="0 0 32 32">
<path d="M22 6c0-3.314-2.686-6-6-6s-6 2.686-6 6v0c0 3.313 2.686 6 6 6s6-2.686 6-6v0zM14.599 15.068c-3.708-2.268-9.714-2.894-12.736-3.066-1.018-0.058-1.863 0.717-1.863 1.693v13.925c0 0.896 0.724 1.643 1.655 1.691 2.729 0.143 8.251 0.667 12.066 2.589 0.585 0.295 1.28-0.107 1.28-0.741v-15.375c0-0.001 0-0.003 0-0.005 0-0.3-0.159-0.564-0.398-0.71l-0.004-0.002zM30.138 12.003c-3.022 0.172-9.029 0.795-12.736 3.066-0.242 0.152-0.401 0.418-0.401 0.721 0 0.002 0 0.004 0 0.007v-0 15.362c0 0.637 0.697 1.040 1.284 0.744 3.815-1.92 9.333-2.445 12.061-2.587 0.931-0.048 1.655-0.795 1.655-1.691v-13.926c0-0.976-0.847-1.751-1.862-1.693z"></path>
</symbol>
<symbol id="icon-facebook" viewBox="0 0 32 32">
<path d="M16 1.229c-8.158 0-14.771 6.613-14.771 14.771s6.613 14.771 14.771 14.771 14.771-6.613 14.771-14.771-6.613-14.771-14.771-14.771zM20.844 16.823c-0.593-0.010-1.136 0.007-1.825-0.022-0.112-0.005-1.908 0.022-1.903 0.054 0.131 0.799-0.057 1.647-0.046 2.455 0.007 0.471 0.145 4.729 0.081 6.3l-3.559 0.033c-0.015-1.338 0.051-2.713-0.007-4.477-0.012-0.363-0.024-4.18-0.066-4.38 0 0-1.573 0.011-2.308 0.016 0 0-0.010-1.409-0.010-1.885v-1.404s1.836-0.102 2.363-0.148c0 0 0.054-1.787 0.127-2.366 0.084-0.661 0.092-1.329 0.481-1.914 0.711-1.071 1.413-2.014 2.721-2.299 0.495-0.108 3.757-0.749 3.878-0.222l-0.074 3.177c-0.887 0-1.95-0.090-2.855 0.582-0.504 0.375-0.643 0.687-0.694 1.304-0.030 0.359-0.037 1.811-0.037 1.811 0.478 0.068 1.186 0.038 1.7 0 0.58-0.043 2.071 0.111 2.071 0.111-0.001 0.961-0.039 3.18-0.036 3.275z"></path>
</symbol>
<symbol id="icon-house" viewBox="0 0 32 32">
<path fill="#fff" style="fill: var(--color1, #fff)" d="M31.909 7.515v1.061c0 0.293-0.237 0.53-0.53 0.53v0h-1.59v0.795c0 0.439-0.356 0.795-0.795 0.795v0h-25.986c-0.439 0-0.795-0.356-0.795-0.795v0-0.795h-1.591c-0.293 0-0.53-0.237-0.53-0.53v0-1.061c0-0.22 0.134-0.408 0.324-0.488l0.004-0.001 15.378-5.834c0.060-0.025 0.13-0.040 0.203-0.040s0.143 0.015 0.206 0.042l-0.003-0.001 15.379 5.834c0.193 0.082 0.327 0.27 0.327 0.489 0 0 0 0 0 0.001v-0zM30.319 27.666h-28.637c-0.878 0-1.59 0.712-1.59 1.59v0 1.062c0 0.293 0.237 0.53 0.53 0.53v0h30.757c0.293 0 0.53-0.237 0.53-0.53v0-1.061c0-0.878-0.712-1.59-1.59-1.59v0zM5.394 11.758v12.727h-2.386c-0.439 0-0.795 0.356-0.795 0.795v0 1.326h27.575v-1.326c0-0.439-0.356-0.795-0.795-0.795v0h-2.387v-12.727h-4.242v12.727h-4.242v-12.727h-4.242v12.727h-4.241v-12.727h-4.245z"></path>
</symbol>
<symbol id="icon-linkedin" viewBox="0 0 31 31">
<path d="M7.02344 31V10.5605H0.666016V31H7.02344ZM3.81055 7.82617C5.86133 7.82617 7.50195 6.11719 7.50195 4.06641C7.50195 2.08398 5.86133 0.443359 3.81055 0.443359C1.82812 0.443359 0.1875 2.08398 0.1875 4.06641C0.1875 6.11719 1.82812 7.82617 3.81055 7.82617ZM30.7441 31H30.8125V19.7891C30.8125 14.3203 29.582 10.082 23.1562 10.082C20.0801 10.082 18.0293 11.791 17.1406 13.3633H17.0723V10.5605H10.9883V31H17.3457V20.8828C17.3457 18.2168 17.8242 15.6875 21.1055 15.6875C24.3867 15.6875 24.4551 18.6953 24.4551 21.0879V31H30.7441Z"/>
</symbol>
<symbol id="icon-pen" viewBox="0 0 32 32">
<path d="M31.119 8.881l-2.881 2.881c-0.136 0.136-0.324 0.22-0.531 0.22s-0.395-0.084-0.531-0.22v0l-6.938-6.938c-0.136-0.136-0.22-0.324-0.22-0.531s0.084-0.395 0.22-0.531v0l2.881-2.881c0.544-0.542 1.294-0.877 2.122-0.877s1.578 0.335 2.122 0.877l3.756 3.756c0.544 0.542 0.881 1.293 0.881 2.122s-0.337 1.58-0.881 2.122l-0 0zM17.763 6.237l-16.412 16.412-1.326 7.595c-0.181 1.025 0.713 1.913 1.737 1.737l7.594-1.331 16.412-16.411c0.136-0.136 0.221-0.324 0.221-0.532s-0.084-0.396-0.221-0.532l-6.937-6.938c-0.137-0.136-0.326-0.221-0.535-0.221s-0.398 0.084-0.535 0.221l0-0zM7.756 21.243c-0.159-0.158-0.258-0.377-0.258-0.619s0.098-0.461 0.258-0.618l9.626-9.626c0.158-0.159 0.377-0.258 0.619-0.258s0.461 0.098 0.618 0.258l0 0c0.159 0.158 0.258 0.377 0.258 0.619s-0.099 0.461-0.258 0.619l-9.625 9.625c-0.158 0.159-0.377 0.258-0.619 0.258s-0.461-0.099-0.619-0.258l-0-0zM5.5 26.501h2.999v2.267l-4.030 0.707-1.944-1.944 0.706-4.031h2.269v3z"></path>
</symbol>
<symbol id="icon-twitter" viewBox="0 0 32 32">
<path d="M0.25 27.531c3.475 0.313 6.606-0.563 9.456-2.7-2.981-0.262-4.975-1.75-6.088-4.537 0.975 0.119 1.888 0.15 2.856-0.113-3.212-1-4.925-3.1-5.156-6.488 0.962 0.45 1.869 0.775 2.938 0.787-1.906-1.431-2.881-3.287-2.844-5.625 0.019-1.075 0.306-2.088 0.875-3.044 3.531 4.131 7.962 6.419 13.419 6.8-0.031-0.238-0.050-0.425-0.075-0.619-0.45-3.463 1.8-6.612 5.238-7.269 2.156-0.412 4.063 0.156 5.675 1.644 0.25 0.225 0.462 0.275 0.775 0.194 1.256-0.319 2.45-0.781 3.606-1.406-0.444 1.463-1.356 2.563-2.594 3.488 0.281-0.050 0.569-0.088 0.85-0.144 0.294-0.063 0.587-0.131 0.881-0.213 0.281-0.075 0.556-0.162 0.831-0.256 0.281-0.094 0.563-0.2 0.894-0.256-0.163 0.225-0.319 0.463-0.494 0.681-0.725 0.919-1.563 1.725-2.481 2.444-0.094 0.075-0.175 0.238-0.169 0.35 0.050 2.219-0.262 4.381-0.981 6.481-1.413 4.137-3.875 7.488-7.569 9.881-1.825 1.181-3.819 1.956-5.95 2.406-2.113 0.444-4.238 0.525-6.369 0.275-2.138-0.25-4.169-0.881-6.081-1.869-0.506-0.256-0.994-0.544-1.488-0.819 0.019-0.025 0.031-0.050 0.044-0.075z"></path>
</symbol>
<symbol id="icon-youtube" viewBox="0 0 32 32">
<path d="M16.275 28.063c-3.569-0.113-6.963-0.2-10.356-0.331-0.731-0.031-1.475-0.144-2.188-0.313-1.337-0.313-2.263-1.119-2.737-2.438-0.381-1.063-0.519-2.156-0.619-3.269-0.219-2.613-0.219-5.225-0.112-7.838 0.063-1.475 0.1-2.963 0.494-4.394 0.238-0.856 0.525-1.694 1.219-2.313 0.731-0.656 1.587-1.050 2.563-1.094 2.675-0.131 5.344-0.294 8.019-0.319 3.6-0.037 7.206 0.013 10.806 0.081 1.556 0.031 3.125 0.112 4.669 0.313 1.413 0.188 2.469 0.975 3.031 2.35 0.431 1.056 0.594 2.162 0.688 3.287 0.244 2.819 0.25 5.638 0.113 8.456-0.069 1.431-0.137 2.869-0.544 4.262-0.462 1.6-1.444 2.656-3.081 3.019-0.637 0.137-1.3 0.188-1.95 0.212-3.4 0.119-6.794 0.225-10.012 0.325zM12.819 20.956c2.85-1.475 5.669-2.938 8.544-4.431-2.869-1.5-5.688-2.969-8.544-4.463v8.894z"></path>
</symbol>
<symbol id="icon-logo" viewBox="0 0 32 32">
<path d="M29.602 3.752c-2.992 0.171-8.938 0.79-12.608 3.041-0.254 0.155-0.398 0.432-0.398 0.72v19.899c0 0.632 0.69 1.031 1.271 0.738 3.776-1.904 9.238-2.424 11.939-2.566 0.922-0.048 1.639-0.789 1.639-1.677v-18.475c0-0.969-0.838-1.736-1.844-1.68zM14.453 6.794c-3.67-2.252-9.617-2.87-12.608-3.041-1.007-0.057-1.845 0.71-1.845 1.679v18.476c0 0.888 0.717 1.628 1.639 1.677 2.702 0.142 8.166 0.662 11.944 2.568 0.579 0.292 1.266-0.106 1.266-0.737v-19.913c0-0.002 0-0.004 0-0.006 0-0.297-0.157-0.558-0.393-0.703l-0.004-0.002z"></path>
</symbol>
<symbol id="icon-strelka" viewBox="0 0 32 32">
<path d="M25.029 17.595l-12.752 12.747c-0.406 0.409-0.968 0.662-1.589 0.662s-1.183-0.253-1.589-0.661l-2.117-2.117c-0.408-0.406-0.66-0.967-0.66-1.588s0.252-1.182 0.66-1.588l9.037-9.040-9.037-9.037c-0.408-0.406-0.66-0.967-0.66-1.588s0.252-1.182 0.66-1.588l0-0 2.109-2.141c0.406-0.409 0.968-0.661 1.589-0.661s1.183 0.253 1.589 0.661l12.749 12.749c0.891 0.88 0.891 2.307 0.011 3.189z"></path>
</symbol>
</defs>
</svg>
